# Blender v2.78 (sub 0) OBJ File: ''
# www.blender.org
mtllib AreaLightLine.mtl
o Cylinder
v 0.000000 0.000000 -0.008172
v 0.000000 2.000000 -0.008172
v 0.007078 0.000000 0.004086
v 0.007078 2.000000 0.004086
v -0.007078 0.000000 0.004086
v -0.007078 2.000000 0.004086
vn 0.8660 0.0000 -0.5000
vn -0.0000 0.0000 1.0000
vn 0.0000 1.0000 0.0000
vn -0.8660 0.0000 -0.5000
vn 0.0000 -1.0000 0.0000
usemtl None
s off
f 1//1 2//1 4//1 3//1
f 3//2 4//2 6//2 5//2
f 4//3 2//3 6//3
f 5//4 6//4 2//4 1//4
f 1//5 3//5 5//5
